<!DOCTYPE svg PUBLIC "-//W3C//DTD SVG 1.1//EN" "http://www.w3.org/Graphics/SVG/1.1/DTD/svg11.dtd">
<svg width="80" height="80" xmlns="http://www.w3.org/2000/svg" xmlns:xlink= "http://www.w3.org/1999/xlink">
<rect x="10" y="20" width="10" height="10" fill="#6767b2"/>
<rect x="30" y="20" width="10" height="10" fill="#6767b2"/>
<rect x="70" y="20" width="10" height="10" fill="#6767b2"/>
<rect x="10" y="30" width="10" height="10" fill="#6767b2"/>
<rect x="20" y="30" width="10" height="10" fill="#6767b2"/>
<rect x="30" y="30" width="10" height="10" fill="#6767b2"/>
<rect x="70" y="30" width="10" height="10" fill="#6767b2"/>
<rect x="10" y="40" width="10" height="10" fill="#6767b2"/>
<rect x="20" y="40" width="10" height="10" fill="#6767b2"/>
<rect x="30" y="40" width="10" height="10" fill="#6767b2"/>
<rect x="60" y="40" width="10" height="10" fill="#6767b2"/>
<rect x="10" y="50" width="10" height="10" fill="#6767b2"/>
<rect x="20" y="50" width="10" height="10" fill="#6767b2"/>
<rect x="30" y="50" width="10" height="10" fill="#6767b2"/>
<rect x="40" y="50" width="10" height="10" fill="#6767b2"/>
<rect x="50" y="50" width="10" height="10" fill="#6767b2"/>
<rect x="20" y="60" width="10" height="10" fill="#6767b2"/>
<rect x="30" y="60" width="10" height="10" fill="#6767b2"/>
<rect x="40" y="60" width="10" height="10" fill="#6767b2"/>
<rect x="50" y="60" width="10" height="10" fill="#6767b2"/>
<rect x="20" y="70" width="10" height="10" fill="#6767b2"/>
<rect x="50" y="70" width="10" height="10" fill="#6767b2"/>
</svg>
